<svg xmlns="http://www.w3.org/2000/svg" id="b20bc320-2fc8-4403-a458-9220829d6284" width="645.297" height="564.508" data-name="Layer 1" viewBox="0 0 645.297 564.508"><title>Load_more</title><rect width="393.535" height="201.566" x="229.166" y="256.363" fill="#60dbfb"/><circle cx="487.257" cy="204.169" r="36.415" fill="#ff6584"/><rect width="1.19" height="66.055" x="347.96" y="377.156" fill="#3f3d56"/><circle cx="348.555" cy="377.157" r="9.341" fill="#3f3d56"/><path fill="#3f3d56" d="M625.9064,585.61372s-1.33444-28.701-28.69046-25.36486" transform="translate(-277.35175 -167.74613)"/><rect width="1.19" height="220.328" x="479.543" y="223.347" fill="#3f3d56"/><circle cx="480.138" cy="223.243" r="9.341" fill="#3f3d56"/><circle cx="451.447" cy="382.651" r="9.341" fill="#3f3d56"/><path fill="#3f3d56" d="M757.4896,438.70353s-1.33444-28.701-28.69046-25.36486" transform="translate(-277.35175 -167.74613)"/><path fill="#3f3d56" d="M757.4896,520.06751s-1.33444-28.701-28.69046-25.36487" transform="translate(-277.35175 -167.74613)"/><path fill="#3f3d56" d="M758.08142,608.91713l-1.18332-.12787c.03487-.32256,3.31168-32.44842-10.14253-48.63485a25.05081,25.05081,0,0,0-18.00211-9.16379l.09183-1.18681a26.20081,26.20081,0,0,1,18.82683,9.59155C761.44773,575.9712,758.11687,608.58933,758.08142,608.91713Z" transform="translate(-277.35175 -167.74613)"/><circle cx="508.832" cy="382.651" r="9.341" fill="#3f3d56"/><path fill="#3f3d56" d="M756.90216,608.91713c-.03545-.3278-3.36631-32.94593,10.4093-49.52177a26.20083,26.20083,0,0,1,18.82683-9.59155l.09183,1.18681a25.04767,25.04767,0,0,0-18.00326,9.16553c-13.45712,16.19283-10.17624,48.31055-10.14137,48.63311Z" transform="translate(-277.35175 -167.74613)"/><circle cx="509.401" cy="295.028" r="9.341" fill="#3f3d56"/><path fill="#3f3d56" d="M757.47174,518.32192c-.03487-.30222-3.28494-30.41073,9.87867-46.34725a26.80627,26.80627,0,0,1,19.35688-9.79381l.09183,1.18682a25.657,25.657,0,0,0-18.531,9.36488c-12.84511,15.55118-9.64793,45.15753-9.61422,45.45453Z" transform="translate(-277.35175 -167.74613)"/><rect width="1.19" height="134.49" x="417.658" y="308.874" fill="#3f3d56"/><circle cx="418.253" cy="308.874" r="9.341" fill="#3f3d56"/><path fill="#3f3d56" d="M695.60446,514.66221s-1.33444-28.701-28.69046-25.36486" transform="translate(-277.35175 -167.74613)"/><path fill="#3f3d56" d="M696.19636,608.60735l-1.18333-.129c.03429-.31733,3.29483-31.93929-10.03965-48.00018a25.17078,25.17078,0,0,0-18.10556-9.20331l.09183-1.18681a26.32024,26.32024,0,0,1,18.93144,9.63223C699.547,576.17113,696.23123,608.28478,696.19636,608.60735Z" transform="translate(-277.35175 -167.74613)"/><circle cx="389.562" cy="382.935" r="9.341" fill="#3f3d56"/><rect width="192.828" height="1.19" x="315.201" y="442.64" fill="#3f3d56"/><path fill="#3f3d56" d="M922.64825,692.85941H473.12237V167.74613H922.64825Zm-447.52588-2H920.64825V169.74613H475.12237Z" transform="translate(-277.35175 -167.74613)"/><rect width="447.526" height="2" x="196.771" y="45.166" fill="#3f3d56"/><circle cx="623.899" cy="23.796" r="7.799" fill="#fff"/><path d="M901.25079,199.84134a8.29883,8.29883,0,1,1,8.29883-8.29883A8.30778,8.30778,0,0,1,901.25079,199.84134Zm0-15.59765a7.29883,7.29883,0,1,0,7.29883,7.29882A7.30647,7.30647,0,0,0,901.25079,184.24369Z" transform="translate(-277.35175 -167.74613)"/><line x1="620.39" x2="627.409" y1="20.287" y2="27.306" fill="#fff"/><rect width="1" height="9.926" x="900.751" y="186.579" transform="translate(-148.83966 525.60931) rotate(-44.99801)"/><line x1="627.409" x2="620.39" y1="20.287" y2="27.306" fill="#fff"/><rect width="9.926" height="1" x="896.288" y="191.042" transform="translate(-148.8222 525.63619) rotate(-45)"/><circle cx="623.899" cy="23.796" r="7.799" fill="none" stroke="#3f3d56" stroke-miterlimit="10" stroke-width="2"/><path fill="none" stroke="#3f3d56" stroke-miterlimit="10" stroke-width="2" d="M901.25079,199.84134a8.29883,8.29883,0,1,1,8.29883-8.29883A8.30778,8.30778,0,0,1,901.25079,199.84134Zm0-15.59765a7.29883,7.29883,0,1,0,7.29883,7.29882A7.30647,7.30647,0,0,0,901.25079,184.24369Z" transform="translate(-277.35175 -167.74613)"/><line x1="620.39" x2="627.409" y1="20.287" y2="27.306" fill="none" stroke="#3f3d56" stroke-miterlimit="10" stroke-width="2"/><rect width="1" height="9.926" x="900.751" y="186.579" fill="none" stroke="#3f3d56" stroke-miterlimit="10" stroke-width="2" transform="translate(-148.83966 525.60931) rotate(-44.99801)"/><line x1="627.409" x2="620.39" y1="20.287" y2="27.306" fill="none" stroke="#3f3d56" stroke-miterlimit="10" stroke-width="2"/><rect width="9.926" height="1" x="896.288" y="191.042" fill="none" stroke="#3f3d56" stroke-miterlimit="10" stroke-width="2" transform="translate(-148.8222 525.63619) rotate(-45)"/><rect width="69.588" height="9.598" x="229.165" y="18.997" fill="#3f3d56"/><rect width="69.588" height="9.598" x="350.345" y="18.997" fill="#3f3d56"/><rect width="69.588" height="9.598" x="471.525" y="18.997" fill="#3f3d56"/><rect width="242.36" height="28.795" x="298.754" y="116.181" fill="#3f3d56"/><circle cx="403.136" cy="496.518" r="5.999" fill="#3f3d56"/><circle cx="419.933" cy="496.518" r="5.999" fill="#3f3d56"/><circle cx="436.731" cy="496.518" r="5.999" fill="#3f3d56"/><rect width="71.117" height="77.126" x="136.494" y="181.086" fill="#f2f2f2"/><path fill="#3f3d56" d="M494.742,421.3721H421.6253V342.24515H494.742Zm-71.1167-2H492.742V344.24515H423.6253Z" transform="translate(-277.35175 -167.74613)"/><circle cx="167.31" cy="214.563" r="5.008" fill="#60dbfb"/><circle cx="181.333" cy="214.563" r="5.008" fill="#60dbfb"/><circle cx="195.356" cy="214.563" r="5.008" fill="#60dbfb"/><path fill="#2f2e41" d="M337.74555,705.04143s36.5313,19.93471,35.04033,26.13565c-.80886,3.364-20.45023-1.66108-38.9294-8.06844-15.58348-5.40333,8.64684-3.01128,6.70753-6.17838C336.325,710.00753,337.74555,705.04143,337.74555,705.04143Z" transform="translate(-277.35175 -167.74613)"/><path fill="#2f2e41" d="M425.56257,699.21065s40.17933,10.842,40.17933,17.21972-68.87886,0-74.61876-5.73991S425.56257,699.21065,425.56257,699.21065Z" transform="translate(-277.35175 -167.74613)"/><path fill="#2f2e41" d="M356.68371,418.59308l17.21972,28.69953s28.69952,74.61876,34.43942,120.538,40.17934,126.2779,28.69953,137.75771-68.87886,12.11758-68.87886,0V470.25223Z" transform="translate(-277.35175 -167.74613)"/><path d="M356.68371,418.59308l17.21972,28.69953s28.69952,74.61876,34.43942,120.538,40.17934,126.2779,28.69953,137.75771-68.87886,12.11758-68.87886,0V470.25223Z" opacity=".1" transform="translate(-277.35175 -167.74613)"/><path fill="#a0616a" d="M310.76447,395.63346v22.95962c0,5.73991,34.43943,5.73991,34.43943,5.73991V401.37337Z" transform="translate(-277.35175 -167.74613)"/><path fill="#2f2e41" d="M327.98419,407.11327l-16.90083,5.421s-17.5386,33.48278-11.7987,51.34026,22.95962,115.43587,22.95962,115.43587v63.139s-34.43943,57.399-17.21971,68.87886,51.65914,23.59739,57.39905,17.21971S373.90343,481.732,373.90343,481.732V447.29261l-5.73991-45.91924Z" transform="translate(-277.35175 -167.74613)"/><circle cx="80.473" cy="82.686" r="33.618" fill="#2f2e41"/><circle cx="44.054" cy="38.422" r="33.618" fill="#2f2e41"/><path fill="#2f2e41" d="M292.40845,234.006a33.6194,33.6194,0,0,0,51.91444-17.652,33.61943,33.61943,0,1,1-65.57883-13.78632A33.607,33.607,0,0,0,292.40845,234.006Z" transform="translate(-277.35175 -167.74613)"/><ellipse cx="92.239" cy="79.044" fill="#2f2e41" rx="21.851" ry="17.089"/><circle cx="85.391" cy="89.811" r="28.381" fill="#a0616a"/><path fill="#a0616a" d="M345.2039,275.09546s5.73991,11.47981-5.7399,17.21972,22.95962,28.69952,22.95962,28.69952l11.47981-40.17933Z" transform="translate(-277.35175 -167.74613)"/><path fill="#60dbfb" d="M350.94381,298.05508s-11.47981-17.21971-17.21972-5.7399-34.43943,45.91923-34.43943,80.35866,0,34.43943,5.73991,34.43943,22.95962-5.7399,28.69952,0,28.69953,0,28.69953,0l5.7399-51.65914s5.73991-28.69953,0-34.43943S350.94381,298.05508,350.94381,298.05508Z" transform="translate(-277.35175 -167.74613)"/><path fill="#60dbfb" d="M322.24428,321.0147s-17.21971,86.09857,0,91.83848,68.87886,28.06175,68.87886,22.32185,5.7399-11.47981,5.7399-11.47981,5.73991,5.7399,5.73991,0v-10.842L345.2039,389.89356v-57.399s11.47981-28.69952,0-28.69952S322.24428,321.0147,322.24428,321.0147Z" transform="translate(-277.35175 -167.74613)"/><path fill="#a0616a" d="M396.863,412.85318s39.54157,0,40.17934,11.47981-40.17934-.63777-40.17934-.63777Z" transform="translate(-277.35175 -167.74613)"/><ellipse cx="359.235" cy="238.743" fill="#2f2e41" rx="25.83" ry="14.35" transform="translate(-332.48599 -48.77832) rotate(-17.48536)"/></svg>